<svg width="32" height="32" viewBox="0 0 32 32" fill="none" xmlns="http://www.w3.org/2000/svg">
<path d="M7.13268 7.52047C5.93268 6.66714 5.63935 5.01381 6.47935 3.80047C7.31935 2.60047 8.98602 2.30714 10.1993 3.14714C11.3993 4.00047 11.6927 5.65381 10.8527 6.86714C9.99935 8.06714 8.34602 8.36047 7.13268 7.52047ZM21.3327 25.3338H11.906C9.93268 25.3338 8.25268 23.8938 7.95935 21.9471L5.33268 9.33381H2.66602L5.31935 22.3471C5.56428 23.9218 6.36408 25.357 7.57438 26.3938C8.78469 27.4305 10.3257 28.0003 11.9193 28.0005H21.3327V25.3338ZM21.6393 20.0005H15.1327L13.7593 14.5338C15.866 15.7205 18.1327 16.5871 20.626 16.1605V13.3205C18.4527 13.7338 16.0393 12.9605 14.3727 11.6538L12.186 9.96047C11.8793 9.72047 11.5327 9.56047 11.1727 9.45381C10.7444 9.32748 10.2931 9.30012 9.85268 9.37381H9.82602C9.04086 9.5132 8.34254 9.95709 7.88307 10.6088C7.42359 11.2606 7.24016 12.0675 7.37268 12.8538L9.17268 20.7471C9.34856 21.6618 9.83728 22.4867 10.555 23.0803C11.2727 23.6739 12.1746 23.9993 13.106 24.0005H22.2393L27.3327 28.0005L29.3327 26.0005L21.6393 20.0005Z" fill="#EAA121"/>
</svg>
