<svg width="18" height="18" viewBox="0 0 18 18" fill="none" xmlns="http://www.w3.org/2000/svg">
<g clip-path="url(#clip0_5_243)">
<path opacity="0.4" d="M0.766919 9.93867C0.759888 10.002 0.759888 10.0652 0.759888 10.1285C0.759888 11.0953 1.37864 11.932 2.25051 12.2449V16.3125C2.25051 17.2441 3.00637 18 3.93801 18H5.06301C5.53762 18 5.96653 17.8031 6.27239 17.4902C6.21614 17.2969 6.18801 17.0895 6.18801 16.875V14.8922C5.49895 14.2734 5.06301 13.377 5.06301 12.375V11.8125C5.06301 10.2973 5.91731 8.98242 7.17239 8.325C6.57122 7.8082 6.18801 7.0418 6.18801 6.1875C6.18801 6.05039 6.19856 5.91328 6.21614 5.7832C5.92434 5.68125 5.61145 5.625 5.28801 5.625H3.71301C2.25051 5.625 1.03059 6.74648 0.91106 8.20547L0.766919 9.93867ZM2.25051 2.25C2.25051 2.84674 2.48757 3.41903 2.90952 3.84099C3.33148 4.26295 3.90378 4.5 4.50051 4.5C5.09725 4.5 5.66955 4.26295 6.0915 3.84099C6.51346 3.41903 6.75051 2.84674 6.75051 2.25C6.75051 1.65326 6.51346 1.08097 6.0915 0.65901C5.66955 0.237053 5.09725 0 4.50051 0C3.90378 0 3.33148 0.237053 2.90952 0.65901C2.48757 1.08097 2.25051 1.65326 2.25051 2.25ZM10.8286 8.325C12.0837 8.98242 12.938 10.2973 12.938 11.8125V12.375C12.938 13.3734 12.5021 14.2734 11.813 14.8922V16.875C11.813 17.0895 11.7849 17.2934 11.7286 17.4902C12.0345 17.8066 12.4634 18 12.938 18H14.063C14.9947 18 15.7505 17.2441 15.7505 16.3125V12.2449C16.6259 11.932 17.2411 11.0953 17.2411 10.1285C17.2411 10.0652 17.2376 10.002 17.2341 9.93867L17.09 8.20547C16.9704 6.74648 15.7505 5.625 14.288 5.625H12.713C12.3896 5.625 12.0767 5.68125 11.7849 5.7832C11.8025 5.9168 11.813 6.05039 11.813 6.1875C11.813 7.0418 11.4298 7.8082 10.8286 8.325ZM11.2505 2.25C11.2505 2.84674 11.4876 3.41903 11.9095 3.84099C12.3315 4.26295 12.9038 4.5 13.5005 4.5C14.0972 4.5 14.6695 4.26295 15.0915 3.84099C15.5135 3.41903 15.7505 2.84674 15.7505 2.25C15.7505 1.65326 15.5135 1.08097 15.0915 0.65901C14.6695 0.237053 14.0972 0 13.5005 0C12.9038 0 12.3315 0.237053 11.9095 0.65901C11.4876 1.08097 11.2505 1.65326 11.2505 2.25Z" fill="#EAA121"/>
<path d="M7.3125 6.1875C7.3125 5.73995 7.49029 5.31072 7.80676 4.99426C8.12322 4.67779 8.55245 4.5 9 4.5C9.44755 4.5 9.87678 4.67779 10.1932 4.99426C10.5097 5.31072 10.6875 5.73995 10.6875 6.1875C10.6875 6.63505 10.5097 7.06428 10.1932 7.38074C9.87678 7.69721 9.44755 7.875 9 7.875C8.55245 7.875 8.12322 7.69721 7.80676 7.38074C7.49029 7.06428 7.3125 6.63505 7.3125 6.1875ZM6.1875 11.8125C6.1875 10.2586 7.44609 9 9 9C10.5539 9 11.8125 10.2586 11.8125 11.8125V12.375C11.8125 13.2082 11.359 13.9359 10.6875 14.3227V16.875C10.6875 17.4973 10.1848 18 9.5625 18H8.4375C7.81523 18 7.3125 17.4973 7.3125 16.875V14.3227C6.64102 13.9324 6.1875 13.2082 6.1875 12.375V11.8125Z" fill="#EAA121"/>
</g>
<defs>
<clipPath id="clip0_5_243">
<rect width="18" height="18" fill="white"/>
</clipPath>
</defs>
</svg>
