<svg width="33" height="32" viewBox="0 0 33 32" fill="none" xmlns="http://www.w3.org/2000/svg">
<path d="M15.6558 8.40575L16.4688 8.62475L18.9058 12.5938L16.0938 11.7498L15.6558 8.40575Z" fill="#EAA121"/>
<path d="M6.03075 6.62475L6.46875 6.74975L8.06175 10.9378L8.21875 11.4058L8.68675 11.5308L26.8748 17.1558C27.0278 17.1989 27.1707 17.2723 27.295 17.3717C27.4192 17.471 27.5222 17.5942 27.598 17.7341C27.6738 17.8739 27.7208 18.0275 27.7362 18.1858C27.7516 18.3441 27.7352 18.5039 27.6878 18.6558C27.6446 18.8088 27.5712 18.9517 27.4718 19.076C27.3725 19.2002 27.2493 19.3032 27.1095 19.379C26.9696 19.4548 26.816 19.5018 26.6577 19.5172C26.4994 19.5326 26.3396 19.5162 26.1878 19.4688L19.4378 17.4368L19.0938 17.3438L18.7808 17.4688L8.84375 21.6248L8.09375 21.3118L13.7188 17.4368L15.4378 16.2498L13.4378 15.6558L5.78075 13.3438L6.03075 6.62475Z" fill="#EAA121"/>
<path fill-rule="evenodd" clip-rule="evenodd" d="M20.1891 21.4391C20.4704 21.1578 20.8519 20.9998 21.2498 20.9998C21.6476 20.9998 22.0291 21.1578 22.3104 21.4391C22.5917 21.7204 22.7498 22.1019 22.7498 22.4998C22.7498 22.8976 22.5917 23.2791 22.3104 23.5604C22.0291 23.8417 21.6476 23.9998 21.2498 23.9998C20.8519 23.9998 20.4704 23.8417 20.1891 23.5604C19.9078 23.2791 19.7498 22.8976 19.7498 22.4998C19.7498 22.1019 19.9078 21.7204 20.1891 21.4391ZM3.74975 27.9998V25.9998H29.7498V27.9998H3.74975Z" fill="#EAA121"/>
</svg>
